<svg xmlns:mydata="http://www.w3.org/2000/svg" mydata:contrastcolor="ffffff" mydata:template="SingleColorHex1" mydata:presentation="2.5" mydata:layouttype="undefined" mydata:specialfontid="undefined" mydata:id1="531" mydata:id2="782" mydata:companyname="Kun Lux" mydata:companytagline="" version="1.1" xmlns="http://www.w3.org/2000/svg" xmlns:xlink="http://www.w3.org/1999/xlink" viewBox="65 211.9595392793857 420 46.08092144122861"><g fill="#2d2926" fill-rule="nonzero" stroke="none" stroke-width="1" stroke-linecap="butt" stroke-linejoin="miter" stroke-miterlimit="10" stroke-dasharray="" stroke-dashoffset="0" font-family="none" font-weight="none" font-size="none" text-anchor="none" style="mix-blend-mode: normal"><g data-paper-data="{&quot;isGlobalGroup&quot;:true,&quot;bounds&quot;:{&quot;x&quot;:65,&quot;y&quot;:211.9595392793857,&quot;width&quot;:420,&quot;height&quot;:46.08092144122861}}"><g data-paper-data="{&quot;isPrimaryText&quot;:true}"><path d="M79.14058,252.02451v-34.79327c0,-3.84525 1.73656,-4.46545 4.34141,-4.46545v-0.80626h-18.48198v0.80626c2.41878,0 4.34141,0.55818 4.34141,4.46545v34.79327c0,3.84525 -1.92262,4.46545 -4.34141,4.46545v0.80626h18.48198v-0.80626c-2.41878,0 -4.34141,-0.6202 -4.34141,-4.46545zM93.7153,211.95954v0.80626c6.13999,0 1.61252,9.05493 -2.1707,13.76846h0.6202c4.83757,-5.45777 13.14826,-13.76846 17.6137,-13.76846v-0.80626zM84.16421,235.46515c5.76787,0.3101 2.7909,21.83107 12.15594,21.83107h14.88482v-0.86828c-14.38866,0 -8.74483,-22.20319 -27.04076,-20.96279z" data-paper-data="{&quot;glyphName&quot;:&quot;K&quot;,&quot;glyphIndex&quot;:0,&quot;firstGlyphOfWord&quot;:true,&quot;word&quot;:1}" style="fill: rgb(255, 255, 255);"></path><path d="M168.85263,248.17927c-1.48848,3.47312 -4.96161,5.95393 -11.53574,5.95393c-6.69817,0 -8.80685,-6.26403 -8.80685,-12.59008v-23.87773c0,-4.15535 1.2404,-4.89959 4.27939,-4.89959v-0.80626h-18.48198v0.80626c3.28706,0 4.34141,1.30242 4.34141,4.83757v23.25753c0,10.91553 3.4111,17.17956 17.05552,17.17956c8.00059,0 12.21796,-2.66686 13.95452,-9.86119zM173.69019,215.68074c-1.36444,2.41878 -2.7909,8.55877 -3.16302,12.21796h-0.6202c-0.3101,-3.65918 -1.48848,-9.79917 -2.85292,-12.27998c-0.9303,-1.67454 -2.97696,-2.7909 -5.45777,-2.7909v-0.86828h17.17956v0.86828c-2.29474,0 -4.15535,1.2404 -5.08565,2.85292z" data-paper-data="{&quot;glyphName&quot;:&quot;U&quot;,&quot;glyphIndex&quot;:1,&quot;word&quot;:1}" style="fill: rgb(255, 255, 255);"></path><path d="M217.19728,211.95954h-15.31896v1.05434c3.78323,0 5.45777,2.60484 8.31069,6.38807l29.83166,37.89427h2.72888v-12.9622zM245.78854,215.68074c-1.36444,2.41878 -2.7909,8.55877 -3.16302,12.21796h-0.68222c-0.3101,-3.65918 -1.48848,-9.79917 -2.85292,-12.21796c-0.9303,-1.67454 -2.97696,-2.85292 -5.45777,-2.85292v-0.86828h17.24158v0.86828c-2.29474,0 -4.15535,1.2404 -5.08565,2.85292zM214.03426,253.57501c-1.36444,-2.41878 -2.85292,-8.55877 -3.16302,-12.21796h-0.68222c-0.3101,3.65918 -1.48848,9.79917 -2.85292,12.21796c-0.9303,1.67454 -2.97696,2.85292 -5.45777,2.85292v0.86828h17.17956v-0.86828c-2.29474,0 -4.09333,-1.2404 -5.02363,-2.85292z" data-paper-data="{&quot;glyphName&quot;:&quot;N&quot;,&quot;glyphIndex&quot;:2,&quot;lastGlyphOfWord&quot;:true,&quot;word&quot;:1}" style="fill: rgb(255, 255, 255);"></path><path d="M326.10455,257.29622v-40.06497c0,-3.84525 1.73656,-4.46545 4.34141,-4.46545v-0.80626h-18.48198v0.80626c2.41878,0 4.34141,0.55818 4.34141,4.46545v34.79327c0,3.84525 -1.92262,4.46545 -4.34141,4.46545v0.80626zM348.43178,243.27968c-1.36444,6.51211 -10.17129,13.21028 -15.69108,13.21028v0.80626h15.62906l1.36444,-14.01654z" data-paper-data="{&quot;glyphName&quot;:&quot;L&quot;,&quot;glyphIndex&quot;:3,&quot;firstGlyphOfWord&quot;:true,&quot;word&quot;:2}" style="fill: rgb(255, 255, 255);"></path><path d="M404.90106,248.17927c-1.48848,3.47312 -4.96161,5.95393 -11.53574,5.95393c-6.69817,0 -8.80685,-6.26403 -8.80685,-12.59008v-23.87773c0,-4.15535 1.2404,-4.89959 4.27939,-4.89959v-0.80626h-18.48198v0.80626c3.28706,0 4.34141,1.30242 4.34141,4.83757v23.25753c0,10.91553 3.4111,17.17956 17.05552,17.17956c8.00059,0 12.21796,-2.66686 13.95452,-9.86119zM409.73863,215.68074c-1.36444,2.41878 -2.7909,8.55877 -3.16302,12.21796h-0.6202c-0.3101,-3.65918 -1.48848,-9.79917 -2.85292,-12.27998c-0.9303,-1.67454 -2.97696,-2.7909 -5.45777,-2.7909v-0.86828h17.17956v0.86828c-2.29474,0 -4.15535,1.2404 -5.08565,2.85292z" data-paper-data="{&quot;glyphName&quot;:&quot;U&quot;,&quot;glyphIndex&quot;:4,&quot;word&quot;:2}" style="fill: rgb(255, 255, 255);"></path><path d="M480.10041,252.27259l-26.04843,-36.40579c-0.68222,-1.05434 -1.30242,-3.101 3.16302,-3.101v-0.80626h-19.28825v0.86828c2.29474,0 5.08565,4.21737 5.08565,4.21737l25.73833,36.28175c1.30242,1.73656 1.5505,3.16302 -2.04666,3.16302v0.80626h18.29592v-0.80626c-2.10868,0 -4.89959,-4.21737 -4.89959,-4.21737zM467.51034,211.95954v0.80626c7.07029,0 4.27939,7.00827 2.04666,10.66745h0.86828c3.28706,-3.84525 9.67513,-10.66745 13.83048,-10.66745v-0.80626zM455.3544,257.29622v-0.80626c-7.07029,0 -4.27939,-7.00827 -2.04666,-10.66745h-0.86828c-3.28706,3.84525 -9.67513,10.66745 -13.83048,10.66745v0.80626z" data-paper-data="{&quot;glyphName&quot;:&quot;X&quot;,&quot;glyphIndex&quot;:5,&quot;lastGlyphOfWord&quot;:true,&quot;word&quot;:2}" style="fill: rgb(255, 255, 255);"></path></g></g></g></svg>